<?xml version="1.0" standalone="no"?>
<!DOCTYPE svg PUBLIC "-//W3C//DTD SVG 20010904//EN"
 "http://www.w3.org/TR/2001/REC-SVG-20010904/DTD/svg10.dtd">
<svg version="1.0" xmlns="http://www.w3.org/2000/svg"
 width="241.000000pt" height="242.000000pt" viewBox="0 0 241.000000 242.000000"
 preserveAspectRatio="xMidYMid meet">
<metadata>
Created by potrace 1.10, written by Peter Selinger 2001-2011
</metadata>
<g transform="translate(0.000000,242.000000) scale(0.100000,-0.100000)"
fill="#000000" stroke="none">
<path d="M1247 1641 c-37 -48 -96 -149 -97 -163 0 -5 15 -8 33 -8 29 0 36 5
54 43 11 23 37 63 57 90 42 55 47 87 13 87 -16 0 -35 -15 -60 -49z"/>
<path d="M1142 1439 c-106 -18 -211 -98 -259 -198 -38 -80 -44 -202 -13 -283
46 -124 171 -216 302 -226 76 -5 158 5 158 19 0 7 -12 8 -32 2 -62 -15 -160
-7 -213 18 -64 30 -140 106 -167 167 -32 71 -35 173 -8 244 26 71 97 151 164
186 45 24 62 27 146 27 111 0 162 -20 233 -89 65 -63 91 -125 91 -221 1 -44
-3 -90 -7 -102 -5 -14 -4 -23 2 -23 16 0 34 108 27 164 -8 58 -44 143 -83 194
-29 38 -111 94 -163 110 -55 17 -120 21 -178 11z"/>
<path d="M1143 1367 c-29 -9 -32 -14 -42 -72 -6 -34 -11 -72 -11 -84 0 -13 -9
-25 -22 -31 -55 -23 -91 -80 -92 -148 -1 -53 11 -62 85 -62 66 0 119 17 194
62 53 31 53 32 40 59 -19 36 -67 75 -111 89 l-36 12 7 61 c4 33 11 74 16 90 5
17 8 31 6 32 -1 1 -16 -3 -34 -8z m-3 -187 c0 -12 77 -50 85 -42 5 4 4 1 0 -7
-6 -11 -4 -13 9 -8 10 4 15 3 11 -3 -6 -9 18 -42 26 -37 3 1 -5 -8 -16 -19
-11 -12 -28 -20 -37 -18 -10 1 -17 -2 -15 -8 3 -17 -117 -48 -157 -41 -22 3
-36 12 -39 24 -3 11 -1 19 4 19 5 0 9 5 9 11 0 5 -4 8 -9 5 -5 -4 -7 3 -4 14
3 11 10 17 16 13 6 -4 8 0 4 9 -7 19 22 48 49 49 10 0 14 3 7 5 -8 4 -7 10 5
22 16 17 52 24 52 12z"/>
<path d="M1272 1018 c-9 -9 -2 -30 30 -89 58 -108 76 -129 110 -122 l28 5 -36
42 c-19 22 -50 71 -67 108 -32 68 -44 77 -65 56z"/>
<path d="M1447 1006 c-8 -20 13 -37 28 -23 9 9 9 14 -1 24 -16 16 -21 16 -27
-1z"/>
<path d="M1214 975 c-3 -8 13 -50 37 -95 38 -71 46 -80 71 -80 34 0 35 4 3 42
-14 16 -37 56 -52 89 -27 58 -48 73 -59 44z"/>
<path d="M1153 952 c-9 -6 -6 -22 13 -62 32 -68 51 -90 80 -90 22 0 22 1 -12
58 -19 31 -37 67 -40 80 -6 23 -20 27 -41 14z"/>
<path d="M1003 936 c2 -6 10 -28 17 -48 10 -26 22 -40 43 -48 22 -7 28 -7 24
3 -35 88 -40 95 -63 100 -16 3 -24 0 -21 -7z"/>
<path d="M1093 942 l-21 -3 25 -59 c20 -46 31 -59 52 -63 14 -3 27 -4 28 -4 1
1 -13 31 -30 67 -26 53 -36 64 -54 62z"/>
<path d="M1471 938 c0 -10 -8 -18 -16 -18 -20 0 -19 -6 5 -30 16 -16 20 -17
20 -5 0 8 7 15 15 15 8 0 15 5 15 10 0 6 -6 10 -14 10 -8 0 -17 8 -19 18 -4
16 -5 16 -6 0z"/>
<path d="M603 3 c335 -2 879 -2 1210 0 331 1 58 2 -608 2 -666 0 -936 -1 -602
-2z"/>
</g>
</svg>
